<svg width="60" height="60" viewBox="0 0 60 60" fill="none" xmlns="http://www.w3.org/2000/svg">
    <path
        d="M30.7497 15.9903V44.6978C30.0809 44.7876 29.4066 44.8331 28.7315 44.8339C24.8149 44.8339 21.0587 43.3069 18.2892 40.5887C15.5197 37.8705 13.9639 34.1838 13.9639 30.3396C13.9639 26.4955 15.5197 22.8088 18.2892 20.0906C21.0587 17.3724 24.8149 15.8454 28.7315 15.8454C29.4066 15.8461 30.0809 15.8916 30.7497 15.9815V15.9903ZM30.0516 6.70957C30.0633 6.48935 30.0292 6.26909 29.9514 6.06222C29.8735 5.85534 29.7536 5.66618 29.5989 5.50624C29.4442 5.34631 29.258 5.21895 29.0516 5.13191C28.8451 5.04488 28.6228 5 28.3981 5C28.1734 5 27.9511 5.04488 27.7446 5.13191C27.5382 5.21895 27.352 5.34631 27.1973 5.50624C27.0426 5.66618 26.9227 5.85534 26.8448 6.06222C26.767 6.26909 26.7329 6.48935 26.7446 6.70957V10.8646C26.7329 11.0848 26.767 11.3051 26.8448 11.512C26.9227 11.7188 27.0426 11.908 27.1973 12.0679C27.352 12.2279 27.5382 12.3552 27.7446 12.4423C27.9511 12.5293 28.1734 12.5742 28.3981 12.5742C28.6228 12.5742 28.8451 12.5293 29.0516 12.4423C29.258 12.3552 29.4442 12.2279 29.5989 12.0679C29.7536 11.908 29.8735 11.7188 29.9514 11.512C30.0292 11.3051 30.0633 11.0848 30.0516 10.8646V6.70957ZM17.8303 9.23509C17.6125 8.86349 17.2532 8.59203 16.8315 8.48042C16.4098 8.36881 15.9602 8.42619 15.5816 8.63995C15.203 8.85371 14.9264 9.20632 14.8127 9.62023C14.699 10.0341 14.7574 10.4754 14.9752 10.847L17.0964 14.4443C17.3218 14.7997 17.6788 15.0554 18.0925 15.1576C18.5061 15.2599 18.944 15.2006 19.314 14.9922C19.684 14.7839 19.9572 14.4428 20.0761 14.0408C20.195 13.6387 20.1503 13.2071 19.9515 12.8367L17.8303 9.23509ZM8.5401 17.4134C8.16266 17.2159 7.7219 17.1699 7.31059 17.2851C6.89929 17.4002 6.54954 17.6674 6.33497 18.0306C6.12041 18.3937 6.05776 18.8244 6.16023 19.2319C6.2627 19.6395 6.52228 19.9921 6.88434 20.2156L10.5539 22.2931C10.9319 22.508 11.3814 22.5668 11.8035 22.4564C12.2257 22.346 12.5858 22.0756 12.8048 21.7046C13.0238 21.3336 13.0836 20.8924 12.9712 20.478C12.8587 20.0637 12.5832 19.7102 12.2052 19.4953L8.5401 17.4134ZM4.66024 29.0571C4.21992 29.0571 3.79763 29.2288 3.48627 29.5344C3.17492 29.84 3 30.2545 3 30.6866C3 31.1188 3.17492 31.5333 3.48627 31.8389C3.79763 32.1445 4.21992 32.3161 4.66024 32.3161H8.89363C9.11801 32.3276 9.34242 32.2941 9.5532 32.2177C9.76397 32.1414 9.9567 32.0237 10.1197 31.8718C10.2826 31.72 10.4124 31.5372 10.501 31.3346C10.5897 31.132 10.6354 30.9137 10.6354 30.6932C10.6354 30.4727 10.5897 30.2545 10.501 30.0519C10.4124 29.8492 10.2826 29.6664 10.1197 29.5146C9.9567 29.3628 9.76397 29.2451 9.5532 29.1687C9.34242 29.0923 9.11801 29.0588 8.89363 29.0703L4.66024 29.0571ZM7.23339 41.0522C7.04592 41.1581 6.88153 41.2991 6.7496 41.4673C6.61767 41.6355 6.52079 41.8276 6.46448 42.0325C6.40818 42.2375 6.39355 42.4513 6.42144 42.6618C6.44933 42.8723 6.51918 43.0753 6.62702 43.2593C6.73486 43.4433 6.87857 43.6047 7.04994 43.7342C7.2213 43.8636 7.41698 43.9587 7.62579 44.014C7.8346 44.0693 8.05246 44.0836 8.26693 44.0563C8.48139 44.0289 8.68826 43.9603 8.87573 43.8545L12.5408 41.7726C12.9188 41.5594 13.1951 41.2076 13.3088 40.7945C13.4225 40.3814 13.3644 39.9409 13.1472 39.5699C12.93 39.1989 12.5715 38.9277 12.1506 38.8161C11.7297 38.7045 11.2809 38.7616 10.9029 38.9747L7.23339 41.0522ZM15.5659 50.1705C15.4478 50.3548 15.3688 50.5606 15.3335 50.7755C15.2982 50.9905 15.3074 51.2102 15.3606 51.4216C15.4137 51.633 15.5097 51.8317 15.6428 52.0058C15.7759 52.18 15.9434 52.3261 16.1353 52.4353C16.3272 52.5445 16.5396 52.6147 16.7597 52.6416C16.9799 52.6685 17.2033 52.6516 17.4166 52.5919C17.6299 52.5322 17.8288 52.4309 18.0014 52.2941C18.1739 52.1573 18.3167 51.9877 18.421 51.7956L20.5377 48.194C20.7305 47.8242 20.7712 47.3958 20.6515 46.9973C20.5318 46.5989 20.2608 46.2607 19.8944 46.0528C19.528 45.8448 19.0942 45.7828 18.6826 45.8797C18.2711 45.9765 17.9131 46.2248 17.6826 46.5732L15.5659 50.1705ZM27.4293 53.9829C27.4513 54.3987 27.6351 54.7904 27.9428 55.0771C28.2505 55.3637 28.6585 55.5236 29.0828 55.5236C29.507 55.5236 29.9151 55.3637 30.2228 55.0771C30.5304 54.7904 30.7143 54.3987 30.7363 53.9829V49.8235C30.7143 49.4077 30.5304 49.016 30.2228 48.7293C29.9151 48.4427 29.507 48.2828 29.0828 48.2828C28.6585 48.2828 28.2505 48.4427 27.9428 48.7293C27.6351 49.016 27.4513 49.4077 27.4293 49.8235V53.9829Z"
        fill="#FF3D00"/>
    <path
        d="M57.4299 28.3235L57.3225 28.2401L57.3315 28.2093C53.0178 25.1426 50.401 26.787 47.3578 28.6993L47.3477 28.7057C46.1958 29.5199 44.9173 30.1458 43.5618 30.5592C42.1208 30.9501 40.4158 30.9413 38.2723 30.1199C37.8396 29.9598 37.3624 29.9598 36.9298 30.1199C36.5133 30.2849 36.1792 30.6034 35.9989 31.0072L35.9452 31.1258C35.7975 31.4911 35.7975 31.898 35.9452 32.2633C36.1079 32.6356 36.4064 32.9347 36.7821 33.1022L36.8895 33.1462C39.9057 34.2881 42.2909 34.3321 44.2643 33.8489C46.2378 33.3658 47.822 32.3644 49.2988 31.4288C50.1457 30.8133 51.0951 30.3467 52.1046 30.0497C53.0175 29.8564 53.9931 30.0189 55.1521 30.8403C55.5249 31.0959 55.9803 31.2084 56.432 31.1565C56.8845 31.1103 57.3021 30.8967 57.6 30.5592L57.685 30.4318C57.9247 30.1148 58.0319 29.7199 57.9845 29.3279C57.937 28.9359 57.7386 28.5766 57.4299 28.3235Z"
        fill="#0185FF"/>
    <path
        d="M57.4299 18.4806L57.3315 18.4059L57.3046 18.3971C52.9909 15.3404 50.3731 16.9826 47.3348 18.8887L47.3342 18.8891H47.3074C46.1739 19.6939 44.9171 20.3166 43.5841 20.7338C41.8195 21.1589 39.9615 21.0046 38.2946 20.2946C37.8629 20.1298 37.3839 20.1298 36.9521 20.2946C36.5341 20.4411 36.1895 20.7399 35.99 21.1291L35.9363 21.2477C35.7818 21.6208 35.7818 22.0385 35.9363 22.4116C36.0997 22.7819 36.3959 23.0804 36.7687 23.2505L36.8805 23.2945C39.8922 24.4364 42.2774 24.4847 44.2554 23.9972C46.2334 23.5097 47.822 22.5082 49.2943 21.5727C50.1402 20.9555 51.0899 20.4887 52.1001 20.1936C53.0086 20.0003 53.9841 20.1584 55.1476 20.9798C55.5198 21.2379 55.976 21.352 56.4287 21.3001C56.8813 21.2482 57.2984 21.034 57.6 20.6987L57.685 20.5932C57.9219 20.2745 58.0273 19.8796 57.98 19.4878C57.9326 19.096 57.7362 18.7362 57.4299 18.4806Z"
        fill="#0185FF"/>
    <path
        d="M57.4389 38.1928L57.3315 38.1138L57.3717 38.0918C53.0533 35.0216 50.4354 36.6687 47.3879 38.5881C46.2361 39.4024 44.9576 40.0283 43.602 40.4416C42.1611 40.8325 40.4561 40.8237 38.3125 40.0024C37.8804 39.8398 37.4022 39.8398 36.97 40.0024C36.5462 40.1524 36.1981 40.4578 35.9989 40.8545L35.9497 40.9599C35.7974 41.332 35.7974 41.7474 35.9497 42.1194C36.112 42.4904 36.4086 42.7893 36.7821 42.9584L36.894 43.0023C39.9101 44.1443 42.2909 44.1926 44.2688 43.705C46.2468 43.2175 47.8354 42.2161 49.3077 41.2805C51.2051 40.0815 52.8385 39.0493 55.1566 40.6964C55.5294 40.952 55.9848 41.0646 56.4365 41.0126C56.8912 40.9664 57.3107 40.7511 57.6089 40.4109L57.694 40.3055C57.9309 39.9867 58.0362 39.5918 57.9889 39.2C57.9416 38.8082 57.7451 38.4484 57.4389 38.1928Z"
        fill="#0185FF"/>
</svg>
